<svg width="271" height="32" viewBox="0 0 271 32" fill="none" xmlns="http://www.w3.org/2000/svg">
<path d="M19.263 13.0874C19.6669 13.0874 20.0103 13.2288 20.293 13.5116C20.5758 13.7943 20.7172 14.1377 20.7172 14.5416V17.5308C20.7172 17.9078 20.5758 18.2377 20.293 18.5205C20.0103 18.8032 19.6669 18.9446 19.263 18.9446H5.97325V29.2855C5.97325 29.6625 5.8386 29.9924 5.5693 30.2752C5.30001 30.5579 4.96339 30.6993 4.55945 30.6993H1.48948C1.11247 30.6993 0.782583 30.5579 0.499823 30.2752C0.217064 29.9924 0.0756836 29.6625 0.0756836 29.2855V14.5416C0.0756836 14.1377 0.217064 13.7943 0.499823 13.5116C0.782583 13.2288 1.11247 13.0874 1.48948 13.0874H19.263ZM21.0807 0.726784C21.4577 0.726784 21.7876 0.868164 22.0704 1.15092C22.3531 1.43368 22.4945 1.76357 22.4945 2.14058V5.08936C22.4945 5.49331 22.3531 5.83666 22.0704 6.11942C21.7876 6.40218 21.4577 6.54356 21.0807 6.54356H1.48948C1.11247 6.54356 0.782583 6.40218 0.499823 6.11942C0.217064 5.83666 0.0756836 5.49331 0.0756836 5.08936V2.14058C0.0756836 1.76357 0.217064 1.43368 0.499823 1.15092C0.782583 0.868164 1.11247 0.726784 1.48948 0.726784H21.0807ZM37.1576 25.0845C37.4808 25.1922 37.7366 25.374 37.9251 25.6298C38.1136 25.8857 38.2079 26.1752 38.2079 26.4983V29.6087C38.2079 30.0396 38.0328 30.4031 37.6827 30.6993C37.4134 30.9148 37.1172 31.0225 36.7941 31.0225C36.6594 31.0225 36.5652 31.009 36.5113 30.9821C34.0069 30.4974 31.8525 29.3394 30.0482 27.5082C27.6246 25.0307 26.4127 21.7722 26.4127 17.7328V2.18098C26.4127 1.77703 26.5541 1.43368 26.8369 1.15092C27.1196 0.868164 27.4495 0.726784 27.8265 0.726784H30.9369C31.3408 0.726784 31.6842 0.868164 31.967 1.15092C32.2497 1.43368 32.3911 1.77703 32.3911 2.18098V17.8136C32.3911 20.3719 33.1182 22.3243 34.5724 23.6707C35.3264 24.3709 36.1882 24.8422 37.1576 25.0845ZM51.0936 0.726784C51.4976 0.726784 51.8409 0.868164 52.1237 1.15092C52.4065 1.43368 52.5478 1.77703 52.5478 2.18098V17.7328C52.5478 21.7722 51.336 25.0307 48.9123 27.5082C47.1081 29.3394 44.9537 30.4974 42.4493 30.9821C42.3954 31.009 42.3012 31.0225 42.1665 31.0225C41.8434 31.0225 41.5471 30.9148 41.2778 30.6993C40.9278 30.43 40.7527 30.053 40.7527 29.5683V26.4579C40.7527 26.1617 40.847 25.8857 41.0355 25.6298C41.224 25.374 41.4798 25.1922 41.803 25.0845C42.8263 24.7883 43.688 24.317 44.3882 23.6707C45.8424 22.3781 46.5695 20.4257 46.5695 17.8136V2.18098C46.5695 1.77703 46.7109 1.43368 46.9936 1.15092C47.2764 0.868164 47.6197 0.726784 48.0237 0.726784H51.0936ZM83.5302 0.726784C83.9073 0.726784 84.2371 0.868164 84.5199 1.15092C84.8027 1.43368 84.944 1.76357 84.944 2.14058V29.2047C84.944 29.5818 84.8027 29.9116 84.5199 30.1944C84.2371 30.4772 83.9073 30.6185 83.5302 30.6185H79.9755C79.4908 30.6185 79.1003 30.43 78.8041 30.053L59.0513 2.98886C58.8897 2.77343 58.7955 2.53106 58.7686 2.26177C58.7416 1.99247 58.7887 1.73664 58.9099 1.49428C59.0311 1.25191 59.2062 1.0634 59.4351 0.928756C59.664 0.794108 59.9131 0.726784 60.1824 0.726784H63.737C63.9525 0.726784 64.1679 0.773911 64.3834 0.868165C64.5988 0.962418 64.7604 1.1038 64.8681 1.2923L79.0465 20.5604V2.14058C79.0465 1.76357 79.1811 1.43368 79.4504 1.15092C79.7197 0.868164 80.0563 0.726784 80.4603 0.726784H83.5302ZM63.2523 20.318C63.6293 20.318 63.9592 20.4527 64.242 20.7219C64.5247 20.9912 64.6661 21.3279 64.6661 21.7318V29.2047C64.6661 29.5818 64.5247 29.9116 64.242 30.1944C63.9592 30.4772 63.6293 30.6185 63.2523 30.6185H60.1824C59.8053 30.6185 59.4755 30.4772 59.1927 30.1944C58.9099 29.9116 58.7686 29.5818 58.7686 29.2047V21.7318C58.7686 21.3279 58.9099 20.9912 59.1927 20.7219C59.4755 20.4527 59.8053 20.318 60.1824 20.318H63.2523ZM117.138 28.3969C117.3 28.5854 117.394 28.8143 117.421 29.0836C117.448 29.3529 117.401 29.6087 117.28 29.851C117.158 30.0934 116.983 30.2819 116.755 30.4166C116.526 30.5512 116.277 30.6185 116.007 30.6185H112.17C111.927 30.6185 111.705 30.5647 111.503 30.457C111.301 30.3492 111.133 30.2011 110.998 30.0126L101.344 16.117L97.3855 19.8333V29.2047C97.3855 29.5818 97.2441 29.9116 96.9613 30.1944C96.6786 30.4772 96.3487 30.6185 95.9717 30.6185H92.9017C92.5247 30.6185 92.1948 30.4772 91.9121 30.1944C91.6293 29.9116 91.4879 29.5818 91.4879 29.2047V17.9751C91.4879 17.5443 91.636 17.2076 91.9323 16.9653L108.817 1.13073C109.086 0.861432 109.41 0.726784 109.787 0.726784H114.149C114.418 0.726784 114.674 0.807573 114.917 0.96915C115.159 1.13073 115.334 1.34616 115.442 1.61546C115.549 1.88475 115.576 2.16078 115.522 2.44354C115.469 2.7263 115.334 2.9754 115.119 3.19083L105.666 12.0776L117.138 28.3969ZM92.9017 11.0273C92.5247 11.0273 92.1948 10.8927 91.9121 10.6234C91.6293 10.3541 91.4879 10.0175 91.4879 9.61352V2.14058C91.4879 1.76357 91.6293 1.43368 91.9121 1.15092C92.1948 0.868164 92.5247 0.726784 92.9017 0.726784H95.9717C96.3487 0.726784 96.6786 0.868164 96.9613 1.15092C97.2441 1.43368 97.3855 1.76357 97.3855 2.14058V9.61352C97.3855 10.0175 97.2441 10.3541 96.9613 10.6234C96.6786 10.8927 96.3487 11.0273 95.9717 11.0273H92.9017ZM132.205 1.04994C132.528 1.31923 132.69 1.68278 132.69 2.14058V5.17015C132.69 5.52024 132.589 5.82319 132.387 6.07902C132.185 6.33485 131.909 6.50316 131.559 6.58395C129.836 6.93404 128.368 7.75539 127.156 9.048C125.513 10.7715 124.692 13.0134 124.692 15.7736C124.692 18.5339 125.513 20.7893 127.156 22.5397C128.368 23.8054 129.836 24.6133 131.559 24.9633C131.909 25.0441 132.185 25.2124 132.387 25.4683C132.589 25.7241 132.69 26.0271 132.69 26.3771V29.4067C132.69 29.8376 132.528 30.2011 132.205 30.4974C131.909 30.7128 131.599 30.8205 131.276 30.8205H131.034C127.91 30.3088 125.231 28.8951 122.995 26.5791C120.195 23.6977 118.794 20.1093 118.794 15.814C118.794 11.5188 120.195 7.9035 122.995 4.96818C125.177 2.7061 127.856 1.30577 131.034 0.767179C131.465 0.68639 131.855 0.780643 132.205 1.04994ZM144.889 4.96818C147.69 7.9035 149.09 11.5188 149.09 15.814C149.09 20.1093 147.69 23.6977 144.889 26.5791C142.654 28.8951 139.974 30.3088 136.851 30.8205H136.608C136.285 30.8205 135.975 30.7128 135.679 30.4974C135.356 30.2011 135.195 29.8376 135.195 29.4067V26.3771C135.195 26.0271 135.295 25.7241 135.497 25.4683C135.699 25.2124 135.975 25.0441 136.326 24.9633C138.049 24.6133 139.517 23.8054 140.729 22.5397C142.371 20.7893 143.193 18.5339 143.193 15.7736C143.193 13.0134 142.371 10.7715 140.729 9.048C139.517 7.75539 138.049 6.93404 136.326 6.58395C135.975 6.50316 135.699 6.33485 135.497 6.07902C135.295 5.82319 135.195 5.52024 135.195 5.17015V2.14058C135.195 1.68278 135.363 1.31923 135.699 1.04994C136.036 0.780643 136.42 0.68639 136.851 0.767179C140.028 1.30577 142.708 2.7061 144.889 4.96818ZM173.69 15.7131C174.848 16.4402 175.73 17.3288 176.336 18.3791C176.942 19.4293 177.245 20.6008 177.245 21.8934C177.245 24.9364 176.087 27.2658 173.771 28.8816C172.209 30.0126 170.095 30.7263 167.429 31.0225H167.268C166.891 31.0225 166.581 30.9013 166.338 30.6589C166.015 30.3627 165.854 30.0126 165.854 29.6087V26.7003C165.854 26.3502 165.975 26.0405 166.217 25.7712C166.46 25.5019 166.756 25.3404 167.106 25.2865C168.372 25.1518 169.355 24.8556 170.055 24.3978C170.593 24.0747 170.957 23.6573 171.145 23.1456C171.253 22.8494 171.307 22.4724 171.307 22.0146C171.307 21.7183 171.253 21.4625 171.145 21.2471C171.038 21.0316 170.849 20.8297 170.58 20.6412C169.799 20.1026 168.789 19.6448 167.55 19.2678L166.904 19.0658C165.558 18.6888 164.319 18.3791 163.188 18.1367C162.945 18.0829 162.555 17.9886 162.016 17.854L161.572 17.7328C160.603 17.4904 159.579 17.1538 158.502 16.7229C156.913 16.0497 155.607 15.2014 154.584 14.1781C153.399 12.9932 152.806 11.4313 152.806 9.49234C152.806 6.82632 153.83 4.65849 155.876 2.98886C157.277 1.80396 159.243 1.04994 161.774 0.726784C162.205 0.672925 162.575 0.794108 162.885 1.09033C163.194 1.38656 163.349 1.73664 163.349 2.14058V5.04897C163.349 5.39905 163.242 5.70874 163.026 5.97804C162.811 6.24733 162.535 6.40218 162.198 6.44257C161.861 6.48297 161.518 6.55702 161.168 6.66474C160.387 6.96097 159.835 7.25046 159.512 7.53322C159.189 7.81598 158.96 8.10547 158.825 8.40169C158.691 8.8595 158.623 9.29037 158.623 9.69431C158.623 9.90975 158.744 10.1386 158.987 10.381C159.364 10.758 159.916 11.0946 160.643 11.3909C160.966 11.5255 161.532 11.7275 162.339 11.9968L167.389 13.249L167.631 13.3298C168.897 13.6799 169.812 13.9492 170.378 14.1377C171.644 14.5686 172.748 15.0937 173.69 15.7131ZM166.944 6.58395C166.621 6.50316 166.359 6.33485 166.157 6.07902C165.955 5.82319 165.854 5.52024 165.854 5.17015V2.22137C165.854 1.7905 166.029 1.42695 166.379 1.13073C166.514 0.996079 166.689 0.908559 166.904 0.868165C167.119 0.827771 167.321 0.821038 167.51 0.847967C169.88 1.22498 171.805 2.03287 173.286 3.27162C175.306 4.94125 176.383 7.06868 176.518 9.65392C176.545 10.0309 176.417 10.3743 176.134 10.684C175.851 10.9937 175.508 11.1485 175.104 11.1485H171.953C171.603 11.1485 171.294 11.0273 171.024 10.785C170.755 10.5426 170.607 10.2464 170.58 9.89628C170.472 9.19612 170.243 8.61713 169.893 8.15933C169.328 7.48609 168.452 6.97443 167.268 6.62435C167.187 6.62435 167.133 6.61088 167.106 6.58395H166.944ZM162.218 25.1249C162.541 25.1788 162.811 25.3404 163.026 25.6096C163.242 25.8789 163.349 26.1752 163.349 26.4983V29.4875C163.349 29.9184 163.188 30.2819 162.865 30.5781C162.595 30.7936 162.286 30.9013 161.936 30.9013H161.734C159.229 30.5243 157.169 29.7029 155.553 28.4372C153.453 26.7676 152.268 24.4382 151.999 21.449C151.945 21.0182 152.066 20.6479 152.362 20.3382C152.658 20.0285 153.008 19.8737 153.412 19.8737H156.603C156.98 19.8737 157.304 20.0016 157.573 20.2574C157.842 20.5132 157.99 20.8297 158.017 21.2067C158.098 22.5532 158.758 23.5899 159.997 24.317C160.562 24.6402 161.303 24.9095 162.218 25.1249ZM183.344 11.0677C182.967 11.0677 182.638 10.9263 182.355 10.6436C182.072 10.3608 181.931 10.0309 181.931 9.65392V2.14058C181.931 1.76357 182.072 1.43368 182.355 1.15092C182.638 0.868164 182.967 0.726784 183.344 0.726784H186.414C186.818 0.726784 187.155 0.868164 187.424 1.15092C187.694 1.43368 187.828 1.76357 187.828 2.14058V9.65392C187.828 10.0309 187.694 10.3608 187.424 10.6436C187.155 10.9263 186.818 11.0677 186.414 11.0677H183.344ZM205.279 0.726784C205.656 0.726784 205.985 0.868164 206.268 1.15092C206.551 1.43368 206.692 1.76357 206.692 2.14058V29.2855C206.692 29.6625 206.551 29.9924 206.268 30.2752C205.985 30.5579 205.656 30.6993 205.279 30.6993H202.209C201.805 30.6993 201.468 30.5579 201.199 30.2752C200.929 29.9924 200.795 29.6625 200.795 29.2855V18.6214H187.828V29.2855C187.828 29.6625 187.694 29.9924 187.424 30.2752C187.155 30.5579 186.818 30.6993 186.414 30.6993H183.344C182.967 30.6993 182.638 30.5579 182.355 30.2752C182.072 29.9924 181.931 29.6625 181.931 29.2855V14.1781C181.931 13.8011 182.072 13.4712 182.355 13.1884C182.638 12.9057 182.967 12.7643 183.344 12.7643H200.795V2.14058C200.795 1.76357 200.929 1.43368 201.199 1.15092C201.468 0.868164 201.805 0.726784 202.209 0.726784H205.279ZM224.951 1.04994C225.274 1.31923 225.435 1.68278 225.435 2.14058V5.17015C225.435 5.52024 225.334 5.82319 225.132 6.07902C224.93 6.33485 224.654 6.50316 224.304 6.58395C222.581 6.93404 221.113 7.75539 219.901 9.048C218.259 10.7715 217.437 13.0134 217.437 15.7736C217.437 18.5339 218.259 20.7893 219.901 22.5397C221.113 23.8054 222.581 24.6133 224.304 24.9633C224.654 25.0441 224.93 25.2124 225.132 25.4683C225.334 25.7241 225.435 26.0271 225.435 26.3771V29.4067C225.435 29.8376 225.274 30.2011 224.951 30.4974C224.654 30.7128 224.345 30.8205 224.021 30.8205H223.779C220.655 30.3088 217.976 28.8951 215.741 26.5791C212.94 23.6977 211.54 20.1093 211.54 15.814C211.54 11.5188 212.94 7.9035 215.741 4.96818C217.922 2.7061 220.601 1.30577 223.779 0.767179C224.21 0.68639 224.6 0.780643 224.951 1.04994ZM237.634 4.96818C240.435 7.9035 241.835 11.5188 241.835 15.814C241.835 20.1093 240.435 23.6977 237.634 26.5791C235.399 28.8951 232.72 30.3088 229.596 30.8205H229.354C229.03 30.8205 228.721 30.7128 228.424 30.4974C228.101 30.2011 227.94 29.8376 227.94 29.4067V26.3771C227.94 26.0271 228.041 25.7241 228.243 25.4683C228.445 25.2124 228.721 25.0441 229.071 24.9633C230.794 24.6133 232.262 23.8054 233.474 22.5397C235.116 20.7893 235.938 18.5339 235.938 15.7736C235.938 13.0134 235.116 10.7715 233.474 9.048C232.262 7.75539 230.794 6.93404 229.071 6.58395C228.721 6.50316 228.445 6.33485 228.243 6.07902C228.041 5.82319 227.94 5.52024 227.94 5.17015V2.14058C227.94 1.68278 228.108 1.31923 228.445 1.04994C228.781 0.780643 229.165 0.68639 229.596 0.767179C232.774 1.30577 235.453 2.7061 237.634 4.96818ZM260.296 0.726784C263.5 0.726784 266.085 1.64912 268.051 3.49379C270.017 5.33846 271 7.79578 271 10.8657C271 13.9357 270.031 16.3863 268.092 18.2175C266.153 20.0487 263.554 20.9643 260.296 20.9643H252.58V29.2047C252.58 29.5818 252.439 29.9116 252.156 30.1944C251.873 30.4772 251.543 30.6185 251.166 30.6185H248.096C247.719 30.6185 247.39 30.4772 247.107 30.1944C246.824 29.9116 246.683 29.5818 246.683 29.2047V16.6825C246.683 16.3055 246.824 15.9756 247.107 15.6929C247.39 15.4101 247.719 15.2687 248.096 15.2687H260.053C261.857 15.2687 263.15 14.8782 263.931 14.0973C264.712 13.3971 265.102 12.3334 265.102 10.9061C265.102 9.47888 264.699 8.3815 263.891 7.61401C263.083 6.84652 261.804 6.46277 260.053 6.46277H248.096C247.719 6.46277 247.39 6.32139 247.107 6.03863C246.824 5.75587 246.683 5.42598 246.683 5.04897V2.14058C246.683 1.76357 246.824 1.43368 247.107 1.15092C247.39 0.868164 247.719 0.726784 248.096 0.726784H260.296Z" fill="#FAFAFF"/>
</svg>
